<svg xmlns="http://www.w3.org/2000/svg" xmlns:xlink="http://www.w3.org/1999/xlink" width="500" zoomAndPan="magnify" viewBox="0 0 375 374.999991" height="500" preserveAspectRatio="xMidYMid meet" version="1.0"><defs><g/><clipPath id="b3232d8be2"><path d="M 50.289062 47.40625 L 324.710938 47.40625 L 324.710938 321.828125 L 50.289062 321.828125 Z M 50.289062 47.40625 " clip-rule="nonzero"/></clipPath><clipPath id="db2ed34996"><path d="M 187.5 47.40625 C 111.71875 47.40625 50.289062 108.835938 50.289062 184.617188 C 50.289062 260.394531 111.71875 321.828125 187.5 321.828125 C 263.277344 321.828125 324.710938 260.394531 324.710938 184.617188 C 324.710938 108.835938 263.277344 47.40625 187.5 47.40625 Z M 187.5 47.40625 " clip-rule="nonzero"/></clipPath><clipPath id="0a4d5d6979"><path d="M 0.289062 0.40625 L 274.710938 0.40625 L 274.710938 274.828125 L 0.289062 274.828125 Z M 0.289062 0.40625 " clip-rule="nonzero"/></clipPath><clipPath id="5bc4c3b37b"><path d="M 137.5 0.40625 C 61.71875 0.40625 0.289062 61.835938 0.289062 137.617188 C 0.289062 213.394531 61.71875 274.828125 137.5 274.828125 C 213.277344 274.828125 274.710938 213.394531 274.710938 137.617188 C 274.710938 61.835938 213.277344 0.40625 137.5 0.40625 Z M 137.5 0.40625 " clip-rule="nonzero"/></clipPath><clipPath id="9171276b59"><rect x="0" width="275" y="0" height="275"/></clipPath><clipPath id="0ac6899bab"><path d="M 65.367188 65.367188 L 309.632812 65.367188 L 309.632812 309.632812 L 65.367188 309.632812 Z M 65.367188 65.367188 " clip-rule="nonzero"/></clipPath><clipPath id="ca38562785"><path d="M 187.5 65.367188 C 120.046875 65.367188 65.367188 120.046875 65.367188 187.5 C 65.367188 254.953125 120.046875 309.632812 187.5 309.632812 C 254.953125 309.632812 309.632812 254.953125 309.632812 187.5 C 309.632812 120.046875 254.953125 65.367188 187.5 65.367188 Z M 187.5 65.367188 " clip-rule="nonzero"/></clipPath><clipPath id="8565b74fee"><path d="M 0.367188 0.367188 L 244.632812 0.367188 L 244.632812 244.632812 L 0.367188 244.632812 Z M 0.367188 0.367188 " clip-rule="nonzero"/></clipPath><clipPath id="c125b6b889"><path d="M 122.5 0.367188 C 55.046875 0.367188 0.367188 55.046875 0.367188 122.5 C 0.367188 189.953125 55.046875 244.632812 122.5 244.632812 C 189.953125 244.632812 244.632812 189.953125 244.632812 122.5 C 244.632812 55.046875 189.953125 0.367188 122.5 0.367188 Z M 122.5 0.367188 " clip-rule="nonzero"/></clipPath><clipPath id="92a007d825"><rect x="0" width="245" y="0" height="245"/></clipPath><clipPath id="96456a7102"><path d="M 65.367188 65.367188 L 309.632812 65.367188 L 309.632812 309.632812 L 65.367188 309.632812 Z M 65.367188 65.367188 " clip-rule="nonzero"/></clipPath><clipPath id="8142fd9aad"><path d="M 187.5 65.367188 C 120.046875 65.367188 65.367188 120.046875 65.367188 187.5 C 65.367188 254.949219 120.046875 309.632812 187.5 309.632812 C 254.949219 309.632812 309.632812 254.949219 309.632812 187.5 C 309.632812 120.046875 254.949219 65.367188 187.5 65.367188 Z M 187.5 65.367188 " clip-rule="nonzero"/></clipPath><clipPath id="a4dd63af3d"><path d="M 0.601562 0.078125 L 189 0.078125 L 189 68.71875 L 0.601562 68.71875 Z M 0.601562 0.078125 " clip-rule="nonzero"/></clipPath><clipPath id="69628c27a2"><rect x="0" width="190" y="0" height="69"/></clipPath><clipPath id="f03a689000"><path d="M 0.601562 0.0390625 L 284.519531 0.0390625 L 284.519531 125.800781 L 0.601562 125.800781 Z M 0.601562 0.0390625 " clip-rule="nonzero"/></clipPath><clipPath id="393b158749"><rect x="0" width="285" y="0" height="126"/></clipPath><clipPath id="9745c2e953"><path d="M 0.679688 0.078125 L 28.761719 0.078125 L 28.761719 49 L 0.679688 49 Z M 0.679688 0.078125 " clip-rule="nonzero"/></clipPath><clipPath id="fb3a868a89"><rect x="0" width="29" y="0" height="50"/></clipPath></defs><rect x="-37.5" width="450" fill="#ffffff" y="-37.499999" height="449.999989" fill-opacity="1"/><rect x="-37.5" width="450" fill="#ffffff" y="-37.499999" height="449.999989" fill-opacity="1"/><g clip-path="url(#b3232d8be2)"><g clip-path="url(#db2ed34996)"><g transform="matrix(1, 0, 0, 1, 50, 47)"><g clip-path="url(#9171276b59)"><g clip-path="url(#0a4d5d6979)"><g clip-path="url(#5bc4c3b37b)"><path fill="#000000" d="M 0.289062 0.40625 L 274.710938 0.40625 L 274.710938 274.828125 L 0.289062 274.828125 Z M 0.289062 0.40625 " fill-opacity="1" fill-rule="nonzero"/></g></g></g></g></g></g><g clip-path="url(#0ac6899bab)"><g clip-path="url(#ca38562785)"><g transform="matrix(1, 0, 0, 1, 65, 65)"><g clip-path="url(#92a007d825)"><g clip-path="url(#8565b74fee)"><g clip-path="url(#c125b6b889)"><path fill="#000000" d="M 0.367188 0.367188 L 244.632812 0.367188 L 244.632812 244.632812 L 0.367188 244.632812 Z M 0.367188 0.367188 " fill-opacity="1" fill-rule="nonzero"/></g></g></g></g></g></g><g clip-path="url(#96456a7102)"><g clip-path="url(#8142fd9aad)"><path stroke-linecap="butt" transform="matrix(0.75, 0, 0, 0.75, 65.365524, 65.36552)" fill="none" stroke-linejoin="miter" d="M 162.845978 0.00222372 C 72.908473 0.00222372 0.00221772 72.908479 0.00221772 162.845984 C 0.00221772 252.778282 72.908473 325.689745 162.845978 325.689745 C 252.778276 325.689745 325.689739 252.778282 325.689739 162.845984 C 325.689739 72.908479 252.778276 0.00222372 162.845978 0.00222372 Z M 162.845978 0.00222372 " stroke="#ffffff" stroke-width="8" stroke-opacity="1" stroke-miterlimit="4"/></g></g><path fill="#ffffff" d="M 150.527344 225.210938 C 148.308594 225.210938 146.832031 224.472656 145.351562 222.992188 L 115.773438 193.414062 C 112.816406 190.457031 112.816406 186.019531 115.773438 183.0625 L 145.351562 153.484375 C 148.308594 150.527344 152.746094 150.527344 155.703125 153.484375 C 158.660156 156.445312 158.660156 160.878906 155.703125 163.839844 L 131.304688 188.238281 L 155.703125 212.640625 C 158.660156 215.597656 158.660156 220.035156 155.703125 222.992188 C 154.226562 224.472656 152.746094 225.210938 150.527344 225.210938 Z M 150.527344 225.210938 " fill-opacity="1" fill-rule="nonzero"/><path fill="#ffffff" d="M 224.472656 225.210938 C 222.253906 225.210938 220.773438 224.472656 219.296875 222.992188 C 216.339844 220.035156 216.339844 215.597656 219.296875 212.640625 L 243.695312 188.238281 L 219.296875 163.839844 C 216.339844 160.878906 216.339844 156.445312 219.296875 153.484375 C 222.253906 150.527344 226.691406 150.527344 229.648438 153.484375 L 259.226562 183.0625 C 262.183594 186.019531 262.183594 190.457031 259.226562 193.414062 L 229.648438 222.992188 C 228.167969 224.472656 226.691406 225.210938 224.472656 225.210938 Z M 224.472656 225.210938 " fill-opacity="1" fill-rule="nonzero"/><path fill="#ffffff" d="M 172.710938 240 C 171.972656 240 171.230469 240 170.492188 239.261719 C 166.796875 237.78125 164.578125 234.085938 166.054688 229.648438 L 195.632812 140.914062 C 197.113281 137.21875 200.808594 135 205.246094 136.480469 C 208.945312 137.957031 211.160156 141.65625 209.683594 146.089844 L 180.105469 234.824219 C 178.625 237.78125 175.667969 240 172.710938 240 Z M 172.710938 240 " fill-opacity="1" fill-rule="nonzero"/><g transform="matrix(1, 0, 0, 1, 93, 40)"><g clip-path="url(#69628c27a2)"><g clip-path="url(#a4dd63af3d)"><path fill="#000000" d="M 3.636719 47.316406 C 3.164062 46.75 2.753906 46.144531 2.398438 45.5 C 2.042969 44.855469 1.753906 44.183594 1.53125 43.480469 C 1.304688 42.78125 1.148438 42.066406 1.0625 41.335938 C 0.972656 40.605469 0.957031 39.875 1.011719 39.140625 C 1.0625 38.40625 1.1875 37.683594 1.378906 36.972656 C 1.570312 36.261719 1.828125 35.578125 2.148438 34.917969 C 2.472656 34.257812 2.855469 33.632812 3.300781 33.046875 C 3.742188 32.457031 4.238281 31.917969 4.785156 31.425781 C 6.386719 30.199219 8.011719 29 9.664062 27.839844 C 11.3125 26.675781 12.988281 25.550781 14.683594 24.457031 C 16.382812 23.363281 18.101562 22.304688 19.839844 21.28125 C 21.582031 20.257812 23.34375 19.273438 25.125 18.324219 C 26.90625 17.371094 28.703125 16.457031 30.523438 15.582031 C 32.339844 14.707031 34.175781 13.867188 36.03125 13.066406 C 37.882812 12.265625 39.753906 11.503906 41.636719 10.777344 C 43.519531 10.054688 45.417969 9.367188 47.332031 8.722656 C 49.246094 8.078125 51.167969 7.46875 53.105469 6.902344 C 55.042969 6.335938 56.992188 5.808594 58.953125 5.320312 C 60.910156 4.835938 62.878906 4.390625 64.855469 3.984375 C 66.835938 3.578125 68.820312 3.210938 70.8125 2.886719 C 72.804688 2.5625 74.804688 2.277344 76.808594 2.035156 C 78.8125 1.792969 80.820312 1.59375 82.832031 1.433594 C 84.84375 1.273438 86.859375 1.15625 88.875 1.078125 C 90.894531 1 92.914062 0.964844 94.929688 0.972656 C 96.949219 0.976562 98.96875 1.023438 100.984375 1.113281 C 103 1.203125 105.015625 1.332031 107.027344 1.503906 C 109.039062 1.675781 111.046875 1.890625 113.046875 2.144531 C 115.050781 2.398438 117.046875 2.691406 119.039062 3.027344 C 121.027344 3.363281 123.011719 3.742188 124.984375 4.160156 C 126.960938 4.578125 128.925781 5.035156 130.882812 5.535156 C 132.839844 6.03125 134.785156 6.570312 136.71875 7.148438 C 138.652344 7.726562 140.574219 8.34375 142.484375 9.003906 C 144.390625 9.660156 146.285156 10.355469 148.167969 11.089844 C 150.046875 11.828125 151.910156 12.601562 153.757812 13.410156 C 155.605469 14.222656 157.4375 15.074219 159.25 15.960938 C 161.066406 16.847656 162.859375 17.769531 164.636719 18.730469 C 166.410156 19.691406 168.164062 20.691406 169.898438 21.722656 C 171.632812 22.757812 173.347656 23.824219 175.039062 24.925781 C 176.726562 26.03125 178.394531 27.167969 180.039062 28.339844 C 181.683594 29.511719 183.300781 30.71875 184.894531 31.957031 C 185.441406 32.449219 185.933594 32.992188 186.371094 33.582031 C 186.8125 34.171875 187.191406 34.800781 187.511719 35.460938 C 187.828125 36.125 188.082031 36.8125 188.269531 37.523438 C 188.457031 38.234375 188.578125 38.957031 188.625 39.691406 C 188.675781 40.425781 188.652344 41.15625 188.5625 41.886719 C 188.46875 42.617188 188.308594 43.332031 188.078125 44.03125 C 187.851562 44.730469 187.558594 45.398438 187.199219 46.042969 C 186.84375 46.683594 186.425781 47.289062 185.953125 47.851562 L 171.089844 64.183594 C 170.59375 64.789062 170.046875 65.339844 169.441406 65.835938 C 168.835938 66.328125 168.1875 66.757812 167.496094 67.121094 C 166.800781 67.480469 166.082031 67.769531 165.328125 67.984375 C 164.578125 68.199219 163.8125 68.335938 163.03125 68.394531 C 162.253906 68.457031 161.476562 68.433594 160.703125 68.335938 C 159.925781 68.234375 159.167969 68.058594 158.429688 67.804688 C 157.691406 67.550781 156.984375 67.222656 156.3125 66.824219 C 155.640625 66.425781 155.015625 65.964844 154.4375 65.441406 C 152.285156 63.882812 150.074219 62.410156 147.804688 61.027344 C 145.539062 59.640625 143.21875 58.347656 140.851562 57.144531 C 138.480469 55.941406 136.070312 54.828125 133.613281 53.8125 C 131.160156 52.796875 128.667969 51.878906 126.140625 51.058594 C 123.613281 50.234375 121.058594 49.511719 118.476562 48.890625 C 115.894531 48.265625 113.289062 47.746094 110.664062 47.324219 C 108.042969 46.90625 105.40625 46.589844 102.757812 46.375 C 100.109375 46.160156 97.457031 46.046875 94.796875 46.039062 C 92.140625 46.03125 89.488281 46.128906 86.839844 46.328125 C 84.1875 46.527344 81.550781 46.828125 78.925781 47.230469 C 76.296875 47.636719 73.691406 48.144531 71.105469 48.75 C 68.519531 49.359375 65.957031 50.066406 63.425781 50.871094 C 60.894531 51.679688 58.398438 52.585938 55.9375 53.585938 C 53.476562 54.585938 51.058594 55.683594 48.683594 56.875 C 46.304688 58.0625 43.980469 59.34375 41.703125 60.714844 C 39.429688 62.085938 37.210938 63.542969 35.046875 65.089844 C 34.464844 65.613281 33.835938 66.070312 33.164062 66.464844 C 32.488281 66.859375 31.78125 67.179688 31.039062 67.429688 C 30.300781 67.679688 29.542969 67.851562 28.765625 67.949219 C 27.988281 68.042969 27.210938 68.058594 26.433594 67.996094 C 25.65625 67.933594 24.890625 67.789062 24.140625 67.570312 C 23.390625 67.351562 22.667969 67.058594 21.980469 66.691406 C 21.289062 66.328125 20.644531 65.894531 20.039062 65.394531 C 19.4375 64.898438 18.894531 64.34375 18.402344 63.734375 Z M 3.636719 47.316406 " fill-opacity="1" fill-rule="nonzero"/></g><g fill="#ffffff" fill-opacity="1"><g transform="translate(24.48336, 54.74924)"><g><path d="M 9.625 -9.875 L 3.65625 -6.171875 L 4.453125 -2.75 L 0.359375 -0.21875 L -3.765625 -19.8125 L 0.75 -22.625 L 16.46875 -10.203125 L 12.34375 -7.640625 Z M 6.75 -12.265625 L 1.140625 -16.90625 L 2.796875 -9.828125 Z M 6.75 -12.265625 "/></g></g></g><g fill="#ffffff" fill-opacity="1"><g transform="translate(40.426824, 45.049861)"><g><path d="M 4.25 -5.8125 L 9.71875 -8.28125 L 11.171875 -5.046875 L 1.515625 -0.6875 L -6.234375 -17.84375 L -2.046875 -19.734375 Z M 4.25 -5.8125 "/></g></g></g><g fill="#ffffff" fill-opacity="1"><g transform="translate(50.950866, 39.93447)"><g><path d="M 9.875 -16.390625 C 9.363281 -16.898438 8.753906 -17.222656 8.046875 -17.359375 C 7.347656 -17.492188 6.59375 -17.4375 5.78125 -17.1875 C 4.351562 -16.757812 3.347656 -15.953125 2.765625 -14.765625 C 2.179688 -13.578125 2.128906 -12.203125 2.609375 -10.640625 C 3.097656 -8.984375 3.929688 -7.820312 5.109375 -7.15625 C 6.296875 -6.488281 7.679688 -6.390625 9.265625 -6.859375 C 10.335938 -7.179688 11.160156 -7.726562 11.734375 -8.5 C 12.316406 -9.28125 12.628906 -10.234375 12.671875 -11.359375 L 7.09375 -9.6875 L 6.125 -12.921875 L 15.6875 -15.78125 L 16.90625 -11.703125 C 16.914062 -10.503906 16.671875 -9.316406 16.171875 -8.140625 C 15.671875 -6.960938 14.90625 -5.898438 13.875 -4.953125 C 12.851562 -4.015625 11.59375 -3.320312 10.09375 -2.875 C 8.3125 -2.34375 6.601562 -2.257812 4.96875 -2.625 C 3.34375 -2.988281 1.929688 -3.742188 0.734375 -4.890625 C -0.453125 -6.046875 -1.3125 -7.515625 -1.84375 -9.296875 C -2.382812 -11.078125 -2.472656 -12.78125 -2.109375 -14.40625 C -1.753906 -16.039062 -1.003906 -17.457031 0.140625 -18.65625 C 1.296875 -19.851562 2.769531 -20.71875 4.5625 -21.25 C 6.71875 -21.894531 8.691406 -21.914062 10.484375 -21.3125 C 12.273438 -20.71875 13.6875 -19.5625 14.71875 -17.84375 Z M 9.875 -16.390625 "/></g></g></g><g fill="#ffffff" fill-opacity="1"><g transform="translate(69.175722, 34.32244)"><g><path d="M 10.5 -1.125 C 8.75 -0.90625 7.085938 -1.113281 5.515625 -1.75 C 3.953125 -2.382812 2.648438 -3.378906 1.609375 -4.734375 C 0.578125 -6.085938 -0.0507812 -7.675781 -0.28125 -9.5 C -0.519531 -11.332031 -0.304688 -13.03125 0.359375 -14.59375 C 1.035156 -16.164062 2.054688 -17.445312 3.421875 -18.4375 C 4.796875 -19.4375 6.359375 -20.046875 8.109375 -20.265625 C 9.859375 -20.484375 11.515625 -20.28125 13.078125 -19.65625 C 14.648438 -19.03125 15.945312 -18.039062 16.96875 -16.6875 C 18 -15.332031 18.632812 -13.738281 18.875 -11.90625 C 19.101562 -10.082031 18.878906 -8.382812 18.203125 -6.8125 C 17.535156 -5.238281 16.519531 -3.953125 15.15625 -2.953125 C 13.800781 -1.953125 12.25 -1.34375 10.5 -1.125 Z M 9.984375 -5.28125 C 11.484375 -5.46875 12.613281 -6.113281 13.375 -7.21875 C 14.144531 -8.332031 14.429688 -9.703125 14.234375 -11.328125 C 14.023438 -12.984375 13.410156 -14.242188 12.390625 -15.109375 C 11.378906 -15.984375 10.125 -16.328125 8.625 -16.140625 C 7.125 -15.953125 5.984375 -15.3125 5.203125 -14.21875 C 4.421875 -13.125 4.140625 -11.742188 4.359375 -10.078125 C 4.554688 -8.429688 5.164062 -7.171875 6.1875 -6.296875 C 7.21875 -5.429688 8.484375 -5.09375 9.984375 -5.28125 Z M 9.984375 -5.28125 "/></g></g></g><g fill="#ffffff" fill-opacity="1"><g transform="translate(89.220122, 32.172118)"><g/></g></g><g fill="#ffffff" fill-opacity="1"><g transform="translate(94.215845, 31.872838)"><g><path d="M 15.09375 -17.90625 L 14.859375 -14.234375 L 7.203125 -14.71875 L 6.953125 -10.765625 L 12.671875 -10.40625 L 12.4375 -6.84375 L 6.71875 -7.203125 L 6.234375 0.40625 L 1.65625 0.109375 L 2.859375 -18.6875 Z M 15.09375 -17.90625 "/></g></g></g><g fill="#ffffff" fill-opacity="1"><g transform="translate(108.078515, 32.878311)"><g><path d="M 9.0625 -17.640625 L 6.171875 0.96875 L 1.640625 0.25 L 4.53125 -18.359375 Z M 9.0625 -17.640625 "/></g></g></g><g fill="#ffffff" fill-opacity="1"><g transform="translate(115.033076, 33.54545)"><g><path d="M 17.078125 -8.671875 C 16.910156 -9.359375 16.5625 -9.945312 16.03125 -10.4375 C 15.507812 -10.925781 14.835938 -11.285156 14.015625 -11.515625 C 12.578125 -11.898438 11.296875 -11.742188 10.171875 -11.046875 C 9.054688 -10.347656 8.28125 -9.207031 7.84375 -7.625 C 7.382812 -5.957031 7.476562 -4.53125 8.125 -3.34375 C 8.78125 -2.15625 9.898438 -1.34375 11.484375 -0.90625 C 12.566406 -0.613281 13.5625 -0.640625 14.46875 -0.984375 C 15.375 -1.328125 16.144531 -1.96875 16.78125 -2.90625 L 11.15625 -4.453125 L 12.046875 -7.71875 L 21.671875 -5.0625 L 20.546875 -0.9375 C 19.910156 0.0703125 19.070312 0.941406 18.03125 1.671875 C 16.988281 2.398438 15.78125 2.894531 14.40625 3.15625 C 13.039062 3.414062 11.597656 3.335938 10.078125 2.921875 C 8.285156 2.429688 6.789062 1.59375 5.59375 0.40625 C 4.40625 -0.769531 3.613281 -2.160156 3.21875 -3.765625 C 2.820312 -5.378906 2.867188 -7.078125 3.359375 -8.859375 C 3.847656 -10.660156 4.675781 -12.15625 5.84375 -13.34375 C 7.007812 -14.539062 8.398438 -15.335938 10.015625 -15.734375 C 11.628906 -16.128906 13.335938 -16.082031 15.140625 -15.59375 C 17.304688 -14.988281 18.988281 -13.957031 20.1875 -12.5 C 21.394531 -11.050781 21.984375 -9.328125 21.953125 -7.328125 Z M 17.078125 -8.671875 "/></g></g></g><g fill="#ffffff" fill-opacity="1"><g transform="translate(133.479813, 38.532349)"><g><path d="M 24.171875 -9.65625 L 16.34375 7.46875 L 12.1875 5.5625 L 15.40625 -1.484375 L 8.90625 -4.453125 L 5.6875 2.59375 L 1.5 0.6875 L 9.328125 -16.4375 L 13.515625 -14.53125 L 10.453125 -7.828125 L 16.953125 -4.859375 L 20.015625 -11.5625 Z M 24.171875 -9.65625 "/></g></g></g><g fill="#ffffff" fill-opacity="1"><g transform="translate(150.209018, 46.227178)"><g><path d="M 22.984375 -7.625 L 21 -4.53125 L 16.78125 -7.234375 L 8.59375 5.515625 L 4.75 3.046875 L 12.9375 -9.703125 L 8.734375 -12.40625 L 10.71875 -15.5 Z M 22.984375 -7.625 "/></g></g></g></g></g><g transform="matrix(1, 0, 0, 1, 45, 209)"><g clip-path="url(#393b158749)"><g clip-path="url(#f03a689000)"><path fill="#000000" d="M 275.472656 5.550781 C 276.1875 5.730469 276.878906 5.976562 277.542969 6.289062 C 278.210938 6.597656 278.839844 6.972656 279.4375 7.402344 C 280.03125 7.835938 280.578125 8.320312 281.082031 8.859375 C 281.582031 9.398438 282.027344 9.976562 282.417969 10.601562 C 282.808594 11.226562 283.136719 11.878906 283.402344 12.566406 C 283.664062 13.253906 283.863281 13.957031 283.992188 14.683594 C 284.121094 15.40625 284.179688 16.136719 284.167969 16.871094 C 284.15625 17.609375 284.078125 18.335938 283.925781 19.054688 C 282.816406 22.84375 281.558594 26.582031 280.148438 30.269531 C 278.738281 33.957031 277.183594 37.582031 275.484375 41.148438 C 273.78125 44.710938 271.941406 48.199219 269.960938 51.613281 C 267.976562 55.027344 265.863281 58.359375 263.613281 61.601562 C 261.367188 64.847656 258.988281 67.996094 256.488281 71.050781 C 253.984375 74.105469 251.363281 77.054688 248.625 79.898438 C 245.886719 82.742188 243.039062 85.46875 240.078125 88.082031 C 237.121094 90.699219 234.0625 93.1875 230.90625 95.558594 C 227.746094 97.925781 224.496094 100.164062 221.160156 102.273438 C 217.820312 104.378906 214.402344 106.347656 210.90625 108.183594 C 207.410156 110.015625 203.84375 111.703125 200.210938 113.25 C 196.578125 114.796875 192.890625 116.195312 189.144531 117.445312 C 185.398438 118.695312 181.609375 119.792969 177.777344 120.738281 C 173.945312 121.683594 170.078125 122.472656 166.183594 123.105469 C 162.285156 123.742188 158.371094 124.21875 154.4375 124.539062 C 150.5 124.859375 146.558594 125.019531 142.609375 125.023438 C 138.664062 125.027344 134.722656 124.871094 130.785156 124.554688 C 126.851562 124.242188 122.933594 123.773438 119.035156 123.144531 C 115.136719 122.515625 111.273438 121.730469 107.4375 120.792969 C 103.601562 119.851562 99.8125 118.761719 96.066406 117.515625 C 92.316406 116.273438 88.628906 114.878906 84.992188 113.339844 C 81.355469 111.796875 77.789062 110.113281 74.289062 108.289062 C 70.789062 106.460938 67.371094 104.496094 64.027344 102.394531 C 60.6875 100.289062 57.433594 98.058594 54.273438 95.695312 C 51.109375 93.332031 48.046875 90.84375 45.085938 88.234375 C 42.121094 85.625 39.269531 82.898438 36.527344 80.058594 C 33.785156 77.222656 31.15625 74.277344 28.652344 71.226562 C 26.144531 68.175781 23.765625 65.03125 21.511719 61.789062 C 19.257812 58.546875 17.136719 55.222656 15.148438 51.808594 C 13.164062 48.398438 11.316406 44.910156 9.609375 41.351562 C 7.902344 37.792969 6.34375 34.167969 4.929688 30.484375 C 3.511719 26.796875 2.246094 23.058594 1.132812 19.273438 C 0.980469 18.554688 0.898438 17.824219 0.886719 17.089844 C 0.875 16.355469 0.933594 15.625 1.0625 14.898438 C 1.1875 14.175781 1.382812 13.46875 1.648438 12.785156 C 1.910156 12.097656 2.238281 11.441406 2.628906 10.816406 C 3.015625 10.191406 3.460938 9.609375 3.960938 9.074219 C 4.464844 8.535156 5.011719 8.046875 5.605469 7.613281 C 6.199219 7.179688 6.828125 6.808594 7.496094 6.496094 C 8.160156 6.183594 8.851562 5.9375 9.566406 5.757812 L 31.171875 1.191406 C 31.925781 0.984375 32.691406 0.859375 33.472656 0.8125 C 34.253906 0.765625 35.03125 0.796875 35.804688 0.90625 C 36.578125 1.015625 37.332031 1.203125 38.066406 1.46875 C 38.800781 1.734375 39.503906 2.070312 40.167969 2.476562 C 40.835938 2.886719 41.457031 3.355469 42.027344 3.890625 C 42.597656 4.425781 43.109375 5.011719 43.558594 5.648438 C 44.011719 6.285156 44.390625 6.964844 44.707031 7.679688 C 45.019531 8.394531 45.253906 9.136719 45.417969 9.902344 C 46.257812 12.433594 47.195312 14.925781 48.230469 17.382812 C 49.269531 19.84375 50.398438 22.257812 51.621094 24.625 C 52.847656 26.996094 54.164062 29.3125 55.570312 31.578125 C 56.972656 33.847656 58.464844 36.054688 60.046875 38.203125 C 61.625 40.355469 63.285156 42.4375 65.027344 44.460938 C 66.765625 46.480469 68.585938 48.429688 70.480469 50.304688 C 72.375 52.183594 74.339844 53.984375 76.375 55.707031 C 78.410156 57.433594 80.507812 59.074219 82.671875 60.636719 C 84.835938 62.195312 87.054688 63.667969 89.335938 65.054688 C 91.613281 66.441406 93.941406 67.734375 96.324219 68.941406 C 98.703125 70.144531 101.125 71.253906 103.59375 72.265625 C 106.058594 73.28125 108.5625 74.199219 111.101562 75.015625 C 113.640625 75.835938 116.207031 76.554688 118.800781 77.171875 C 121.394531 77.789062 124.011719 78.304688 126.644531 78.71875 C 129.28125 79.132812 131.925781 79.441406 134.585938 79.648438 C 137.246094 79.855469 139.910156 79.957031 142.578125 79.953125 C 145.242188 79.953125 147.90625 79.847656 150.566406 79.636719 C 153.222656 79.425781 155.871094 79.109375 158.503906 78.695312 C 161.140625 78.277344 163.753906 77.757812 166.347656 77.136719 C 168.941406 76.511719 171.507812 75.789062 174.042969 74.96875 C 176.582031 74.144531 179.082031 73.226562 181.546875 72.207031 C 184.011719 71.1875 186.433594 70.074219 188.8125 68.867188 C 191.191406 67.660156 193.519531 66.363281 195.796875 64.972656 C 198.070312 63.582031 200.289062 62.105469 202.453125 60.542969 C 204.613281 58.980469 206.710938 57.335938 208.742188 55.605469 C 210.773438 53.878906 212.734375 52.074219 214.628906 50.195312 C 216.519531 48.3125 218.332031 46.363281 220.070312 44.339844 C 221.8125 42.316406 223.46875 40.230469 225.042969 38.078125 C 226.617188 35.925781 228.105469 33.714844 229.507812 31.445312 C 230.910156 29.175781 232.222656 26.855469 233.445312 24.484375 C 234.664062 22.113281 235.792969 19.699219 236.824219 17.238281 C 237.855469 14.78125 238.789062 12.285156 239.628906 9.75 C 239.789062 8.984375 240.023438 8.246094 240.335938 7.527344 C 240.648438 6.8125 241.027344 6.136719 241.480469 5.496094 C 241.929688 4.855469 242.441406 4.269531 243.007812 3.734375 C 243.578125 3.199219 244.199219 2.730469 244.863281 2.320312 C 245.53125 1.910156 246.230469 1.574219 246.964844 1.308594 C 247.699219 1.042969 248.453125 0.855469 249.226562 0.742188 C 250 0.628906 250.777344 0.597656 251.558594 0.644531 C 252.339844 0.691406 253.105469 0.816406 253.859375 1.019531 Z M 275.472656 5.550781 " fill-opacity="1" fill-rule="nonzero"/></g><g fill="#ffffff" fill-opacity="1"><g transform="translate(16.040932, 18.795695)"><g><path d="M 22.671875 5.890625 L 19.265625 7.265625 L 16.390625 0.140625 L 12.703125 1.625 L 14.84375 6.953125 L 11.546875 8.28125 L 9.40625 2.953125 L 2.328125 5.796875 L 0.625 1.53125 L 18.09375 -5.5 Z M 22.671875 5.890625 "/></g></g></g><g fill="#ffffff" fill-opacity="1"><g transform="translate(21.982852, 33.062478)"><g><path d="M 19.609375 -3.015625 L 2.84375 5.5625 L 0.75 1.46875 L 17.515625 -7.109375 Z M 19.609375 -3.015625 "/></g></g></g><g fill="#ffffff" fill-opacity="1"><g transform="translate(25.783617, 41.141204)"><g><path d="M 18.5625 4.671875 C 18.894531 4.046875 19.023438 3.375 18.953125 2.65625 C 18.878906 1.9375 18.609375 1.222656 18.140625 0.515625 C 17.316406 -0.722656 16.25 -1.441406 14.9375 -1.640625 C 13.625 -1.847656 12.285156 -1.5 10.921875 -0.59375 C 9.484375 0.363281 8.617188 1.5 8.328125 2.8125 C 8.046875 4.132812 8.359375 5.484375 9.265625 6.859375 C 9.890625 7.796875 10.65625 8.425781 11.5625 8.75 C 12.46875 9.082031 13.46875 9.101562 14.5625 8.8125 L 11.328125 3.96875 L 14.140625 2.109375 L 19.671875 10.421875 L 16.125 12.78125 C 14.976562 13.125 13.769531 13.226562 12.5 13.09375 C 11.226562 12.957031 9.992188 12.535156 8.796875 11.828125 C 7.597656 11.128906 6.5625 10.125 5.6875 8.8125 C 4.664062 7.269531 4.085938 5.660156 3.953125 3.984375 C 3.828125 2.316406 4.144531 0.742188 4.90625 -0.734375 C 5.664062 -2.210938 6.816406 -3.460938 8.359375 -4.484375 C 9.910156 -5.515625 11.515625 -6.09375 13.171875 -6.21875 C 14.835938 -6.351562 16.410156 -6.039062 17.890625 -5.28125 C 19.367188 -4.53125 20.625 -3.378906 21.65625 -1.828125 C 22.894531 0.046875 23.488281 1.925781 23.4375 3.8125 C 23.394531 5.707031 22.703125 7.398438 21.359375 8.890625 Z M 18.5625 4.671875 "/></g></g></g><g fill="#ffffff" fill-opacity="1"><g transform="translate(38.005061, 59.263843)"><g><path d="M 26.015625 0.390625 L 12.203125 13.1875 L 9.09375 9.828125 L 14.78125 4.5625 L 9.9375 -0.6875 L 4.25 4.578125 L 1.125 1.21875 L 14.9375 -11.578125 L 18.0625 -8.21875 L 12.65625 -3.203125 L 17.5 2.046875 L 22.90625 -2.96875 Z M 26.015625 0.390625 "/></g></g></g><g fill="#ffffff" fill-opacity="1"><g transform="translate(52.332369, 74.413224)"><g><path d="M 23.671875 -5.03125 L 21.359375 -2.171875 L 17.484375 -5.328125 L 7.9375 6.4375 L 4.375 3.546875 L 13.921875 -8.21875 L 10.046875 -11.359375 L 12.359375 -14.21875 Z M 23.671875 -5.03125 "/></g></g></g><g fill="#ffffff" fill-opacity="1"><g transform="translate(65.375432, 84.678072)"><g/></g></g><g fill="#ffffff" fill-opacity="1"><g transform="translate(70.588931, 88.395732)"><g><path d="M 21.375 -9.546875 L 19.578125 -6.359375 L 12.890625 -10.125 L 10.9375 -6.671875 L 15.9375 -3.859375 L 14.1875 -0.75 L 9.1875 -3.5625 L 5.4375 3.078125 L 1.4375 0.8125 L 10.6875 -15.578125 Z M 21.375 -9.546875 "/></g></g></g><g fill="#ffffff" fill-opacity="1"><g transform="translate(84.411522, 96.356429)"><g><path d="M 9.78125 4 C 8.144531 3.363281 6.785156 2.394531 5.703125 1.09375 C 4.617188 -0.207031 3.9375 -1.703125 3.65625 -3.390625 C 3.382812 -5.078125 3.582031 -6.78125 4.25 -8.5 C 4.925781 -10.21875 5.929688 -11.601562 7.265625 -12.65625 C 8.609375 -13.71875 10.117188 -14.363281 11.796875 -14.59375 C 13.472656 -14.820312 15.128906 -14.617188 16.765625 -13.984375 C 18.421875 -13.347656 19.785156 -12.378906 20.859375 -11.078125 C 21.941406 -9.773438 22.613281 -8.285156 22.875 -6.609375 C 23.132812 -4.929688 22.925781 -3.234375 22.25 -1.515625 C 21.582031 0.203125 20.582031 1.59375 19.25 2.65625 C 17.914062 3.726562 16.414062 4.378906 14.75 4.609375 C 13.09375 4.835938 11.4375 4.632812 9.78125 4 Z M 11.296875 0.09375 C 12.703125 0.632812 14.003906 0.601562 15.203125 0 C 16.398438 -0.601562 17.296875 -1.671875 17.890625 -3.203125 C 18.492188 -4.753906 18.554688 -6.15625 18.078125 -7.40625 C 17.597656 -8.65625 16.65625 -9.550781 15.25 -10.09375 C 13.84375 -10.644531 12.539062 -10.625 11.34375 -10.03125 C 10.144531 -9.445312 9.238281 -8.375 8.625 -6.8125 C 8.03125 -5.257812 7.972656 -3.859375 8.453125 -2.609375 C 8.941406 -1.359375 9.890625 -0.457031 11.296875 0.09375 Z M 11.296875 0.09375 "/></g></g></g><g fill="#ffffff" fill-opacity="1"><g transform="translate(105.41514, 104.257464)"><g><path d="M 11 2.421875 L 8.703125 -5.359375 L 7.640625 -5.59375 L 6.109375 1.34375 L 1.625 0.359375 L 5.65625 -18.03125 L 13.171875 -16.390625 C 14.628906 -16.066406 15.8125 -15.539062 16.71875 -14.8125 C 17.632812 -14.082031 18.25 -13.21875 18.5625 -12.21875 C 18.875 -11.226562 18.910156 -10.195312 18.671875 -9.125 C 18.398438 -7.90625 17.816406 -6.890625 16.921875 -6.078125 C 16.023438 -5.265625 14.851562 -4.800781 13.40625 -4.6875 L 16.0625 3.53125 Z M 8.328125 -8.78125 L 11.09375 -8.171875 C 11.925781 -7.992188 12.585938 -8.0625 13.078125 -8.375 C 13.578125 -8.6875 13.910156 -9.207031 14.078125 -9.9375 C 14.222656 -10.632812 14.132812 -11.226562 13.8125 -11.71875 C 13.5 -12.21875 12.925781 -12.554688 12.09375 -12.734375 L 9.328125 -13.34375 Z M 8.328125 -8.78125 "/></g></g></g><g fill="#ffffff" fill-opacity="1"><g transform="translate(123.341645, 107.87507)"><g/></g></g><g fill="#ffffff" fill-opacity="1"><g transform="translate(129.836737, 108.985482)"><g><path d="M 9.140625 -18.640625 C 11.128906 -18.585938 12.859375 -18.148438 14.328125 -17.328125 C 15.796875 -16.515625 16.914062 -15.382812 17.6875 -13.9375 C 18.46875 -12.5 18.835938 -10.851562 18.796875 -9 C 18.765625 -7.15625 18.320312 -5.523438 17.46875 -4.109375 C 16.625 -2.703125 15.445312 -1.617188 13.9375 -0.859375 C 12.425781 -0.109375 10.6875 0.238281 8.71875 0.1875 L 1.65625 0.03125 L 2.078125 -18.796875 Z M 8.515625 -3.78125 C 10.253906 -3.738281 11.613281 -4.179688 12.59375 -5.109375 C 13.582031 -6.035156 14.09375 -7.367188 14.125 -9.109375 C 14.164062 -10.835938 13.710938 -12.195312 12.765625 -13.1875 C 11.828125 -14.175781 10.488281 -14.691406 8.75 -14.734375 L 6.578125 -14.78125 L 6.34375 -3.828125 Z M 8.515625 -3.78125 "/></g></g></g><g fill="#ffffff" fill-opacity="1"><g transform="translate(150.780076, 109.401916)"><g><path d="M 10.484375 -1.28125 C 8.742188 -1.039062 7.082031 -1.222656 5.5 -1.828125 C 3.925781 -2.441406 2.601562 -3.414062 1.53125 -4.75 C 0.46875 -6.09375 -0.191406 -7.675781 -0.453125 -9.5 C -0.703125 -11.320312 -0.503906 -13.019531 0.140625 -14.59375 C 0.796875 -16.175781 1.796875 -17.476562 3.140625 -18.5 C 4.492188 -19.519531 6.039062 -20.148438 7.78125 -20.390625 C 9.539062 -20.640625 11.207031 -20.460938 12.78125 -19.859375 C 14.363281 -19.253906 15.675781 -18.28125 16.71875 -16.9375 C 17.769531 -15.601562 18.421875 -14.023438 18.671875 -12.203125 C 18.929688 -10.378906 18.738281 -8.675781 18.09375 -7.09375 C 17.457031 -5.519531 16.46875 -4.21875 15.125 -3.1875 C 13.789062 -2.164062 12.242188 -1.53125 10.484375 -1.28125 Z M 9.890625 -5.421875 C 11.390625 -5.640625 12.515625 -6.304688 13.265625 -7.421875 C 14.015625 -8.546875 14.273438 -9.921875 14.046875 -11.546875 C 13.816406 -13.191406 13.1875 -14.441406 12.15625 -15.296875 C 11.125 -16.160156 9.859375 -16.484375 8.359375 -16.265625 C 6.867188 -16.054688 5.742188 -15.398438 4.984375 -14.296875 C 4.222656 -13.191406 3.957031 -11.8125 4.1875 -10.15625 C 4.425781 -8.507812 5.0625 -7.253906 6.09375 -6.390625 C 7.132812 -5.535156 8.398438 -5.210938 9.890625 -5.421875 Z M 9.890625 -5.421875 "/></g></g></g><g fill="#ffffff" fill-opacity="1"><g transform="translate(173.291595, 106.237511)"><g><path d="M 15.8125 -25.15625 L 21.796875 -7.296875 L 17.453125 -5.84375 L 13.859375 -16.5625 L 13.453125 -4.515625 L 9.9375 -3.328125 L 2.328125 -12.71875 L 5.921875 -1.984375 L 1.578125 -0.53125 L -4.40625 -18.390625 L 0.734375 -20.109375 L 9.890625 -9.4375 L 10.703125 -23.453125 Z M 15.8125 -25.15625 "/></g></g></g><g fill="#ffffff" fill-opacity="1"><g transform="translate(197.495256, 97.473212)"><g><path d="M -2.625 -19.65625 L 5.625 -2.734375 L 1.484375 -0.71875 L -6.765625 -17.640625 Z M -2.625 -19.65625 "/></g></g></g><g fill="#ffffff" fill-opacity="1"><g transform="translate(205.635763, 93.826266)"><g><path d="M 15.625 -9.9375 L 11.75 -7.46875 L -0.953125 -13.15625 L 5.28125 -3.359375 L 1.390625 -0.890625 L -8.703125 -16.78125 L -4.8125 -19.25 L 7.90625 -13.515625 L 1.65625 -23.359375 L 5.53125 -25.828125 Z M 15.625 -9.9375 "/></g></g></g><g fill="#ffffff" fill-opacity="1"><g transform="translate(223.784769, 82.138302)"><g><path d="M 7.8125 -11.375 L 2.546875 -6.703125 L 3.90625 -3.46875 L 0.3125 -0.28125 L -7.078125 -18.890625 L -3.109375 -22.421875 L 14.484375 -12.859375 L 10.859375 -9.640625 Z M 4.5625 -13.25 L -1.75 -16.859375 L 1.09375 -10.15625 Z M 4.5625 -13.25 "/></g></g></g><g fill="#ffffff" fill-opacity="1"><g transform="translate(239.56139, 67.995709)"><g><path d="M 11.703125 -14.34375 L 8.796875 -10.78125 L -5.046875 -12.1875 L 3.953125 -4.84375 L 1.046875 -1.28125 L -13.53125 -13.1875 L -10.625 -16.75 L 3.25 -15.3125 L -5.78125 -22.6875 L -2.875 -26.25 Z M 11.703125 -14.34375 "/></g></g></g><g fill="#ffffff" fill-opacity="1"><g transform="translate(253.147619, 51.185647)"><g><path d="M -7.75 -5.46875 C -9.363281 -6.394531 -10.597656 -7.570312 -11.453125 -9 C -12.316406 -10.425781 -12.742188 -11.96875 -12.734375 -13.625 C -12.722656 -15.28125 -12.265625 -16.898438 -11.359375 -18.484375 C -10.242188 -20.410156 -8.773438 -21.769531 -6.953125 -22.5625 C -5.128906 -23.351562 -3.203125 -23.476562 -1.171875 -22.9375 L -3.6875 -18.5625 C -4.550781 -18.625 -5.332031 -18.457031 -6.03125 -18.0625 C -6.738281 -17.664062 -7.3125 -17.085938 -7.75 -16.328125 C -8.445312 -15.109375 -8.585938 -13.875 -8.171875 -12.625 C -7.765625 -11.375 -6.847656 -10.335938 -5.421875 -9.515625 C -3.992188 -8.691406 -2.632812 -8.414062 -1.34375 -8.6875 C -0.0625 -8.96875 0.925781 -9.71875 1.625 -10.9375 C 2.0625 -11.695312 2.273438 -12.476562 2.265625 -13.28125 C 2.265625 -14.082031 2.019531 -14.84375 1.53125 -15.5625 L 4.046875 -19.9375 C 5.546875 -18.457031 6.40625 -16.734375 6.625 -14.765625 C 6.84375 -12.796875 6.394531 -10.847656 5.28125 -8.921875 C 4.375 -7.335938 3.207031 -6.125 1.78125 -5.28125 C 0.351562 -4.4375 -1.1875 -4.023438 -2.84375 -4.046875 C -4.5 -4.066406 -6.132812 -4.539062 -7.75 -5.46875 Z M -7.75 -5.46875 "/></g></g></g><g fill="#ffffff" fill-opacity="1"><g transform="translate(263.690141, 32.262935)"><g><path d="M -11.734375 -11.4375 L -8.203125 -10.03125 L -5.921875 -15.734375 L -2.640625 -14.40625 L -4.921875 -8.703125 L -1.078125 -7.171875 L 1.515625 -13.625 L 4.921875 -12.25 L 0.609375 -1.53125 L -16.859375 -8.546875 L -12.546875 -19.265625 L -9.140625 -17.890625 Z M -11.734375 -11.4375 "/></g></g></g></g></g><path fill="#000000" d="M 56.289062 183.808594 L 56.289062 148.648438 C 56.289062 144.796875 59.414062 141.671875 63.269531 141.671875 L 77.789062 141.671875 C 81.640625 141.671875 84.765625 144.796875 84.765625 148.648438 L 84.765625 183.808594 C 84.765625 187.660156 81.640625 190.785156 77.789062 190.785156 L 63.269531 190.785156 C 61.417969 190.785156 59.640625 190.050781 58.335938 188.742188 C 57.027344 187.433594 56.289062 185.65625 56.289062 183.808594 Z M 56.289062 183.808594 " fill-opacity="1" fill-rule="nonzero"/><g fill="#ffffff" fill-opacity="1"><g transform="translate(60.930026, 161.353333)"><g><path d="M 3.515625 -9.828125 L 3.515625 -6.890625 L 7.46875 -6.890625 L 7.46875 -5.03125 L 3.515625 -5.03125 L 3.515625 -1.921875 L 7.96875 -1.921875 L 7.96875 0 L 1.15625 0 L 1.15625 -11.75 L 7.96875 -11.75 L 7.96875 -9.828125 Z M 3.515625 -9.828125 "/></g></g></g><g fill="#ffffff" fill-opacity="1"><g transform="translate(69.87015, 161.353333)"><g><path d="M 5.21875 0.125 C 4.394531 0.125 3.65625 -0.015625 3 -0.296875 C 2.34375 -0.578125 1.820312 -0.976562 1.4375 -1.5 C 1.0625 -2.03125 0.867188 -2.65625 0.859375 -3.375 L 3.375 -3.375 C 3.414062 -2.894531 3.585938 -2.515625 3.890625 -2.234375 C 4.203125 -1.953125 4.625 -1.8125 5.15625 -1.8125 C 5.707031 -1.8125 6.140625 -1.941406 6.453125 -2.203125 C 6.765625 -2.472656 6.921875 -2.820312 6.921875 -3.25 C 6.921875 -3.59375 6.8125 -3.875 6.59375 -4.09375 C 6.382812 -4.320312 6.117188 -4.5 5.796875 -4.625 C 5.484375 -4.757812 5.046875 -4.90625 4.484375 -5.0625 C 3.722656 -5.28125 3.101562 -5.5 2.625 -5.71875 C 2.15625 -5.9375 1.75 -6.265625 1.40625 -6.703125 C 1.0625 -7.148438 0.890625 -7.742188 0.890625 -8.484375 C 0.890625 -9.179688 1.0625 -9.785156 1.40625 -10.296875 C 1.757812 -10.816406 2.25 -11.210938 2.875 -11.484375 C 3.5 -11.765625 4.21875 -11.90625 5.03125 -11.90625 C 6.238281 -11.90625 7.21875 -11.609375 7.96875 -11.015625 C 8.726562 -10.429688 9.148438 -9.613281 9.234375 -8.5625 L 6.640625 -8.5625 C 6.617188 -8.957031 6.445312 -9.285156 6.125 -9.546875 C 5.8125 -9.816406 5.390625 -9.953125 4.859375 -9.953125 C 4.398438 -9.953125 4.03125 -9.832031 3.75 -9.59375 C 3.476562 -9.363281 3.34375 -9.023438 3.34375 -8.578125 C 3.34375 -8.265625 3.445312 -8.003906 3.65625 -7.796875 C 3.863281 -7.585938 4.117188 -7.414062 4.421875 -7.28125 C 4.734375 -7.15625 5.171875 -7.007812 5.734375 -6.84375 C 6.492188 -6.613281 7.113281 -6.382812 7.59375 -6.15625 C 8.082031 -5.9375 8.5 -5.601562 8.84375 -5.15625 C 9.1875 -4.707031 9.359375 -4.117188 9.359375 -3.390625 C 9.359375 -2.765625 9.195312 -2.179688 8.875 -1.640625 C 8.550781 -1.109375 8.070312 -0.679688 7.4375 -0.359375 C 6.8125 -0.0351562 6.070312 0.125 5.21875 0.125 Z M 5.21875 0.125 "/></g></g></g><g fill="#ffffff" fill-opacity="1"><g transform="translate(59.652683, 183.103332)"><g><path d="M 9.140625 -11.734375 L 9.140625 -9.828125 L 6.015625 -9.828125 L 6.015625 0 L 3.671875 0 L 3.671875 -9.828125 L 0.53125 -9.828125 L 0.53125 -11.734375 Z M 9.140625 -11.734375 "/></g></g></g><g fill="#ffffff" fill-opacity="1"><g transform="translate(69.349021, 183.103332)"><g><path d="M 5.265625 -11.734375 C 6.492188 -11.734375 7.578125 -11.492188 8.515625 -11.015625 C 9.453125 -10.535156 10.175781 -9.847656 10.6875 -8.953125 C 11.195312 -8.054688 11.453125 -7.019531 11.453125 -5.84375 C 11.453125 -4.664062 11.195312 -3.640625 10.6875 -2.765625 C 10.175781 -1.890625 9.453125 -1.207031 8.515625 -0.71875 C 7.578125 -0.238281 6.492188 0 5.265625 0 L 1.15625 0 L 1.15625 -11.734375 Z M 5.171875 -2 C 6.410156 -2 7.363281 -2.332031 8.03125 -3 C 8.707031 -3.675781 9.046875 -4.625 9.046875 -5.84375 C 9.046875 -7.070312 8.707031 -8.03125 8.03125 -8.71875 C 7.363281 -9.40625 6.410156 -9.75 5.171875 -9.75 L 3.515625 -9.75 L 3.515625 -2 Z M 5.171875 -2 "/></g></g></g><g transform="matrix(1, 0, 0, 1, 295, 154)"><g clip-path="url(#fb3a868a89)"><g clip-path="url(#9745c2e953)"><path fill="#000000" d="M 0.980469 42.011719 L 0.980469 7.324219 C 0.980469 3.59375 4.003906 0.570312 7.730469 0.570312 L 21.519531 0.570312 C 25.246094 0.570312 28.269531 3.59375 28.269531 7.324219 L 28.269531 42.011719 C 28.269531 45.742188 25.246094 48.765625 21.519531 48.765625 L 7.730469 48.765625 C 5.941406 48.765625 4.222656 48.054688 2.957031 46.785156 C 1.691406 45.519531 0.980469 43.804688 0.980469 42.011719 Z M 0.980469 42.011719 " fill-opacity="1" fill-rule="nonzero"/></g><g fill="#ffffff" fill-opacity="1"><g transform="translate(4.342112, 19.064305)"><g><path d="M 0.65625 -2.296875 C 1.039062 -2.597656 1.210938 -2.738281 1.171875 -2.71875 C 2.273438 -3.625 3.140625 -4.367188 3.765625 -4.953125 C 4.398438 -5.535156 4.9375 -6.144531 5.375 -6.78125 C 5.8125 -7.425781 6.03125 -8.050781 6.03125 -8.65625 C 6.03125 -9.113281 5.921875 -9.472656 5.703125 -9.734375 C 5.492188 -9.992188 5.179688 -10.125 4.765625 -10.125 C 4.335938 -10.125 4 -9.960938 3.75 -9.640625 C 3.507812 -9.316406 3.390625 -8.863281 3.390625 -8.28125 L 0.625 -8.28125 C 0.644531 -9.238281 0.847656 -10.035156 1.234375 -10.671875 C 1.617188 -11.316406 2.128906 -11.789062 2.765625 -12.09375 C 3.398438 -12.394531 4.101562 -12.546875 4.875 -12.546875 C 6.207031 -12.546875 7.210938 -12.203125 7.890625 -11.515625 C 8.566406 -10.828125 8.90625 -9.9375 8.90625 -8.84375 C 8.90625 -7.644531 8.492188 -6.53125 7.671875 -5.5 C 6.859375 -4.476562 5.820312 -3.476562 4.5625 -2.5 L 9.09375 -2.5 L 9.09375 -0.171875 L 0.65625 -0.171875 Z M 0.65625 -2.296875 "/></g></g></g><g fill="#ffffff" fill-opacity="1"><g transform="translate(13.941377, 19.064305)"><g><path d="M 0.75 -6.3125 C 0.75 -8.238281 1.125 -9.753906 1.875 -10.859375 C 2.625 -11.972656 3.828125 -12.53125 5.484375 -12.53125 C 7.140625 -12.53125 8.335938 -11.972656 9.078125 -10.859375 C 9.828125 -9.753906 10.203125 -8.238281 10.203125 -6.3125 C 10.203125 -4.351562 9.828125 -2.816406 9.078125 -1.703125 C 8.335938 -0.597656 7.140625 -0.046875 5.484375 -0.046875 C 3.828125 -0.046875 2.625 -0.597656 1.875 -1.703125 C 1.125 -2.816406 0.75 -4.351562 0.75 -6.3125 Z M 7.375 -6.3125 C 7.375 -7.4375 7.25 -8.300781 7 -8.90625 C 6.757812 -9.519531 6.253906 -9.828125 5.484375 -9.828125 C 4.710938 -9.828125 4.203125 -9.519531 3.953125 -8.90625 C 3.703125 -8.300781 3.578125 -7.4375 3.578125 -6.3125 C 3.578125 -5.539062 3.617188 -4.90625 3.703125 -4.40625 C 3.796875 -3.914062 3.976562 -3.515625 4.25 -3.203125 C 4.53125 -2.890625 4.941406 -2.734375 5.484375 -2.734375 C 6.015625 -2.734375 6.414062 -2.890625 6.6875 -3.203125 C 6.96875 -3.515625 7.148438 -3.914062 7.234375 -4.40625 C 7.328125 -4.90625 7.375 -5.539062 7.375 -6.3125 Z M 7.375 -6.3125 "/></g></g></g><g fill="#ffffff" fill-opacity="1"><g transform="translate(4.364002, 40.778986)"><g><path d="M 0.65625 -2.296875 C 1.039062 -2.597656 1.210938 -2.738281 1.171875 -2.71875 C 2.273438 -3.625 3.140625 -4.367188 3.765625 -4.953125 C 4.398438 -5.535156 4.9375 -6.144531 5.375 -6.78125 C 5.8125 -7.425781 6.03125 -8.050781 6.03125 -8.65625 C 6.03125 -9.113281 5.921875 -9.472656 5.703125 -9.734375 C 5.492188 -9.992188 5.179688 -10.125 4.765625 -10.125 C 4.335938 -10.125 4 -9.960938 3.75 -9.640625 C 3.507812 -9.316406 3.390625 -8.863281 3.390625 -8.28125 L 0.625 -8.28125 C 0.644531 -9.238281 0.847656 -10.035156 1.234375 -10.671875 C 1.617188 -11.316406 2.128906 -11.789062 2.765625 -12.09375 C 3.398438 -12.394531 4.101562 -12.546875 4.875 -12.546875 C 6.207031 -12.546875 7.210938 -12.203125 7.890625 -11.515625 C 8.566406 -10.828125 8.90625 -9.9375 8.90625 -8.84375 C 8.90625 -7.644531 8.492188 -6.53125 7.671875 -5.5 C 6.859375 -4.476562 5.820312 -3.476562 4.5625 -2.5 L 9.09375 -2.5 L 9.09375 -0.171875 L 0.65625 -0.171875 Z M 0.65625 -2.296875 "/></g></g></g><g fill="#ffffff" fill-opacity="1"><g transform="translate(13.963267, 40.778986)"><g><path d="M 9.390625 -9.765625 L 4.15625 -9.765625 L 4.15625 -7.453125 C 4.375 -7.691406 4.6875 -7.890625 5.09375 -8.046875 C 5.5 -8.203125 5.9375 -8.28125 6.40625 -8.28125 C 7.25 -8.28125 7.945312 -8.085938 8.5 -7.703125 C 9.050781 -7.328125 9.457031 -6.835938 9.71875 -6.234375 C 9.976562 -5.628906 10.109375 -4.972656 10.109375 -4.265625 C 10.109375 -2.953125 9.738281 -1.910156 9 -1.140625 C 8.257812 -0.378906 7.21875 0 5.875 0 C 4.96875 0 4.179688 -0.148438 3.515625 -0.453125 C 2.859375 -0.765625 2.351562 -1.195312 2 -1.75 C 1.644531 -2.300781 1.445312 -2.929688 1.40625 -3.640625 L 4.21875 -3.640625 C 4.289062 -3.296875 4.453125 -3.007812 4.703125 -2.78125 C 4.960938 -2.550781 5.316406 -2.4375 5.765625 -2.4375 C 6.296875 -2.4375 6.6875 -2.601562 6.9375 -2.9375 C 7.195312 -3.28125 7.328125 -3.726562 7.328125 -4.28125 C 7.328125 -4.832031 7.191406 -5.253906 6.921875 -5.546875 C 6.648438 -5.835938 6.257812 -5.984375 5.75 -5.984375 C 5.363281 -5.984375 5.046875 -5.890625 4.796875 -5.703125 C 4.554688 -5.523438 4.398438 -5.28125 4.328125 -4.96875 L 1.546875 -4.96875 L 1.546875 -12.296875 L 9.390625 -12.296875 Z M 9.390625 -9.765625 "/></g></g></g></g></g></svg>