<svg xmlns="http://www.w3.org/2000/svg" viewBox="0 0 1280 800" role="img" aria-label="Subtle editor themed background">
  <defs>
    <linearGradient id="base" x1="0" y1="0" x2="1" y2="1">
      <stop offset="0%" stop-color="#2c1d56" />
      <stop offset="100%" stop-color="#24184a" />
    </linearGradient>
    <linearGradient id="sidebar" x1="0" y1="0" x2="0" y2="1">
      <stop offset="0%" stop-color="#2f2162" />
      <stop offset="100%" stop-color="#261a52" />
    </linearGradient>
    <linearGradient id="accent" x1="0" y1="0" x2="1" y2="0">
      <stop offset="0%" stop-color="#a86bff" />
      <stop offset="100%" stop-color="#7de9ff" />
    </linearGradient>
    <filter id="softGlow" x="-20%" y="-20%" width="140%" height="140%">
      <feGaussianBlur stdDeviation="9" />
    </filter>
  </defs>

  <rect width="1280" height="800" fill="url(#base)" />

  <rect x="96" y="80" width="1088" height="640" rx="20" fill="#24184d" stroke="#6e5aa5" stroke-opacity="0.26" />
  <rect x="96" y="80" width="1088" height="38" rx="20" fill="#211648" />

  <circle cx="124" cy="99" r="6" fill="#ff8f9e" />
  <circle cx="144" cy="99" r="6" fill="#ffdc84" />
  <circle cx="164" cy="99" r="6" fill="#8ce7a5" />

  <rect x="96" y="118" width="290" height="602" fill="url(#sidebar)" />
  <rect x="386" y="118" width="798" height="602" fill="#261a52" />

  <rect x="118" y="146" width="172" height="34" rx="8" fill="#3b2b73" />
  <rect x="118" y="194" width="240" height="14" rx="6" fill="#645898" fill-opacity="0.5" />
  <rect x="118" y="220" width="222" height="14" rx="6" fill="#645898" fill-opacity="0.38" />
  <rect x="118" y="246" width="248" height="14" rx="6" fill="#645898" fill-opacity="0.3" />

  <rect x="110" y="314" width="266" height="36" rx="7" fill="#9e74ff" fill-opacity="0.55" />
  <rect x="120" y="366" width="176" height="14" rx="6" fill="#6f62a1" fill-opacity="0.4" />
  <rect x="120" y="392" width="210" height="14" rx="6" fill="#6f62a1" fill-opacity="0.3" />

  <rect x="430" y="164" width="118" height="12" rx="6" fill="#6b5e9a" fill-opacity="0.55" />
  <rect x="560" y="164" width="142" height="12" rx="6" fill="#6b5e9a" fill-opacity="0.48" />

  <rect x="430" y="214" width="250" height="14" rx="7" fill="#86d8ff" fill-opacity="0.7" />
  <rect x="430" y="246" width="326" height="14" rx="7" fill="#f8cc7b" fill-opacity="0.62" />
  <rect x="430" y="278" width="286" height="14" rx="7" fill="#90f3ba" fill-opacity="0.62" />

  <rect x="430" y="338" width="692" height="2" fill="url(#accent)" fill-opacity="0.34" />

  <circle cx="1130" cy="678" r="18" fill="#5f4e91" />
  <circle cx="1098" cy="678" r="18" fill="#4a3e78" />
  <circle cx="1066" cy="678" r="18" fill="#3d3468" />

  <rect x="104" y="686" width="120" height="22" rx="11" fill="#f49e6d" fill-opacity="0.8" filter="url(#softGlow)" />
</svg>
